<?xml version="1.0" standalone="no"?><!DOCTYPE svg PUBLIC "-//W3C//DTD SVG 1.1//EN" "http://www.w3.org/Graphics/SVG/1.1/DTD/svg11.dtd"><svg t="1712820274769" class="icon" viewBox="0 0 1025 1024" version="1.1" xmlns="http://www.w3.org/2000/svg" p-id="5243" xmlns:xlink="http://www.w3.org/1999/xlink" width="200.1953125" height="200"><path d="M268.8 494.933333c-12.8 0-21.333333-4.266667-29.866667-12.8-8.533333-8.533333-12.8-17.066667-12.8-29.866666 0-12.8 4.266667-21.333333 12.8-29.866667 4.266667-4.266667 8.533333-8.533333 12.8-8.533333 8.533333-4.266667 21.333333-4.266667 34.133334 0 4.266667 0 8.533333 4.266667 12.8 8.533333 8.533333 8.533333 12.8 17.066667 12.8 29.866667 0 12.8-4.266667 21.333333-12.8 29.866666-8.533333 8.533333-21.333333 12.8-29.866667 12.8zM448 494.933333c-4.266667 0-12.8 0-17.066667-4.266666-4.266667-4.266667-8.533333-4.266667-12.8-8.533334-8.533333-8.533333-12.8-17.066667-12.8-29.866666 0-12.8 4.266667-21.333333 12.8-29.866667 17.066667-17.066667 42.666667-17.066667 59.733334 0 8.533333 8.533333 12.8 17.066667 12.8 29.866667 0 12.8-4.266667 21.333333-12.8 29.866666-4.266667 4.266667-8.533333 8.533333-12.8 8.533334s-12.8 4.266667-17.066667 4.266666zM627.2 494.933333c-4.266667 0-12.8 0-17.066667-4.266666-4.266667-4.266667-8.533333-4.266667-12.8-8.533334-8.533333-8.533333-12.8-17.066667-12.8-29.866666 0-12.8 4.266667-21.333333 12.8-29.866667 17.066667-17.066667 42.666667-17.066667 59.733334 0 8.533333 8.533333 12.8 17.066667 12.8 29.866667 0 12.8-4.266667 21.333333-12.8 29.866666-4.266667 4.266667-8.533333 8.533333-12.8 8.533334s-12.8 4.266667-17.066667 4.266666z" fill="#2c2c2c" p-id="5244"></path><path d="M972.8 785.066667c34.133333-55.466667 51.2-115.2 51.2-179.2 0-115.2-59.733333-221.866667-157.866667-290.133334h-4.266666c-64-153.6-226.133333-260.266667-418.133334-260.266666C200.533333 51.2 0 230.4 0 452.266667c0 72.533333 17.066667 136.533333 59.733333 196.266666L4.266667 793.6c-4.266667 12.8-4.266667 29.866667 8.533333 42.666667 4.266667 12.8 17.066667 17.066667 29.866667 17.066666h8.533333l196.266667-38.4c17.066667 8.533333 34.133333 12.8 51.2 17.066667 76.8 85.333333 192 136.533333 315.733333 136.533333 64 0 123.733333-12.8 179.2-34.133333l179.2 34.133333h8.533333c12.8 0 25.6-4.266667 34.133334-17.066666 8.533333-12.8 12.8-29.866667 8.533333-42.666667l-51.2-123.733333zM251.733333 729.6h-8.533333l-136.533333 25.6 34.133333-93.866667c4.266667-12.8 4.266667-29.866667-4.266667-38.4-34.133333-55.466667-51.2-110.933333-51.2-170.666666 0-174.933333 162.133333-315.733333 362.666667-315.733334S810.666667 277.333333 810.666667 452.266667 644.266667 768 448 768c-64 0-123.733333-12.8-174.933333-38.4h-21.333334z m635.733334 64l29.866666 76.8-115.2-21.333333c-8.533333 0-17.066667 0-25.6 4.266666-46.933333 21.333333-102.4 34.133333-157.866666 34.133334-51.2 0-102.4-12.8-149.333334-34.133334 234.666667-8.533333 422.4-183.466667 422.4-396.8 29.866667 42.666667 46.933333 93.866667 46.933334 149.333334 0 51.2-17.066667 102.4-51.2 149.333333-4.266667 12.8-4.266667 25.6 0 38.4z" fill="#2c2c2c" p-id="5245"></path></svg>