<?xml version="1.0" standalone="no"?><!DOCTYPE svg PUBLIC "-//W3C//DTD SVG 1.1//EN" "http://www.w3.org/Graphics/SVG/1.1/DTD/svg11.dtd"><svg t="1712680942522" class="icon" viewBox="0 0 1024 1024" version="1.1" xmlns="http://www.w3.org/2000/svg" p-id="1674" xmlns:xlink="http://www.w3.org/1999/xlink" width="200" height="200"><path d="M788.15 63.25h-552.3c-95.32 0-172.6 77.27-172.6 172.6v552.3c0 95.32 77.27 172.6 172.6 172.6h552.3c95.32 0 172.6-77.27 172.6-172.6v-552.3c0-95.32-77.28-172.6-172.6-172.6zM768.96 342.6l-320.7 320.7H725.2c34.18 0 61.9 27.71 61.9 61.9s-27.71 61.9-61.9 61.9H298.81c-34.18 0-61.9-27.71-61.9-61.9 0-17.35 7.15-33.03 18.65-44.27L575.79 360.7H298.81c-34.18 0-61.9-27.71-61.9-61.9s27.71-61.9 61.9-61.9H725.2c34.18 0 61.9 27.71 61.9 61.9 0 17.1-6.93 32.58-18.14 43.78v0.02z" fill="#3B6EA5" p-id="1675"></path></svg>